<?xml version="1.0" encoding="utf-8"?>
<!-- Generator: Adobe Illustrator 19.1.0, SVG Export Plug-In . SVG Version: 6.00 Build 0)  -->
<svg version="1.1" id="Layer_1" xmlns="http://www.w3.org/2000/svg" xmlns:xlink="http://www.w3.org/1999/xlink" x="0px" y="0px"
	 viewBox="-297.1 388.9 16.2 16.2" style="enable-background:new -297.1 388.9 16.2 16.2;" xml:space="preserve">
<style type="text/css">
	.st0{fill:#696E70;}
</style>
<path class="st0" d="M-280.9,397c0,0.2-0.1,0.3-0.2,0.4l-2.3,2.3c-0.1,0.1-0.2,0.2-0.4,0.2s-0.3-0.1-0.4-0.2s-0.2-0.2-0.2-0.4v-1.1
	h-3.4v3.4h1.1c0.2,0,0.3,0.1,0.4,0.2c0.1,0.1,0.2,0.2,0.2,0.4s-0.1,0.3-0.2,0.4l-2.3,2.3c-0.1,0.1-0.2,0.2-0.4,0.2s-0.3-0.1-0.4-0.2
	l-2.3-2.3c-0.1-0.1-0.2-0.2-0.2-0.4s0.1-0.3,0.2-0.4c0.1-0.1,0.2-0.2,0.4-0.2h1.1v-3.4h-3.4v1.1c0,0.2-0.1,0.3-0.2,0.4
	s-0.2,0.2-0.4,0.2s-0.3-0.1-0.4-0.2l-2.3-2.3c-0.1-0.1-0.2-0.2-0.2-0.4s0.1-0.3,0.2-0.4l2.3-2.3c0.1-0.1,0.2-0.2,0.4-0.2
	s0.3,0.1,0.4,0.2s0.2,0.2,0.2,0.4v1.1h3.4v-3.4h-1.1c-0.2,0-0.3-0.1-0.4-0.2c-0.1-0.1-0.2-0.2-0.2-0.4s0.1-0.3,0.2-0.4l2.3-2.3
	c0.1-0.1,0.2-0.2,0.4-0.2s0.3,0.1,0.4,0.2l2.3,2.3c0.1,0.1,0.2,0.2,0.2,0.4s-0.1,0.3-0.2,0.4c-0.1,0.1-0.2,0.2-0.4,0.2h-1.1v3.4h3.4
	v-1.1c0-0.2,0.1-0.3,0.2-0.4s0.2-0.2,0.4-0.2s0.3,0.1,0.4,0.2l2.3,2.3C-281,396.7-280.9,396.9-280.9,397L-280.9,397z"/>
</svg>
